<svg width="300" height="300" xmlns="http://www.w3.org/2000/svg">
  <defs>
    <pattern id="circuit" width="100" height="100" patternUnits="userSpaceOnUse">
      <!-- 水平線 -->
      <path d="M 0 20 L 100 20" stroke="black" stroke-width="0.8" fill="none"/>
      <path d="M 0 60 L 100 60" stroke="black" stroke-width="0.8" fill="none"/>
      
      <!-- 垂直線 -->
      <path d="M 20 0 L 20 100" stroke="black" stroke-width="0.8" fill="none"/>
      <path d="M 60 0 L 60 100" stroke="black" stroke-width="0.8" fill="none"/>
      
      <!-- 接続点 -->
      <circle cx="20" cy="20" r="3" fill="black"/>
      <circle cx="60" cy="20" r="3" fill="black"/>
      <circle cx="20" cy="60" r="3" fill="black"/>
      <circle cx="60" cy="60" r="3" fill="black"/>
      
      <!-- 斜め線（接続線） -->
      <path d="M 20 20 L 40 40" stroke="black" stroke-width="0.6" fill="none"/>
      <path d="M 60 60 L 80 80" stroke="black" stroke-width="0.6" fill="none"/>
      <path d="M 60 20 L 80 0" stroke="black" stroke-width="0.6" fill="none"/>
      <path d="M 20 60 L 0 80" stroke="black" stroke-width="0.6" fill="none"/>
      
      <!-- 小さな回路パーツの模様 -->
      <rect x="42" y="42" width="16" height="16" stroke="black" fill="none" stroke-width="0.8"/>
      <rect x="75" y="25" width="10" height="10" stroke="black" fill="none" stroke-width="0.8"/>
      <rect x="25" y="75" width="10" height="10" stroke="black" fill="none" stroke-width="0.8"/>
    </pattern>
  </defs>
  <rect width="300" height="300" fill="url(#circuit)" />
</svg> 
